<svg width="40" height="40" viewBox="0 0 40 40" fill="none" xmlns="http://www.w3.org/2000/svg">
<path fill-rule="evenodd" clip-rule="evenodd" d="M4.1665 32.0833C4.1665 35.0749 6.59163 37.5 9.58317 37.5C12.5747 37.5 14.9998 35.0749 14.9998 32.0833C14.9998 29.5191 13.2181 27.3711 10.8251 26.8097C10.8304 26.7628 10.8332 26.715 10.8332 26.6667L10.8332 19.155C12.8956 21.7038 16.0491 23.3333 19.5832 23.3333H25.1448C25.7091 25.7222 27.8552 27.5 30.4165 27.5C33.408 27.5 35.8332 25.0749 35.8332 22.0833C35.8332 19.0918 33.408 16.6667 30.4165 16.6667C27.8552 16.6667 25.7091 18.4444 25.1448 20.8333H19.5832C15.1194 20.8333 11.4363 17.4908 10.9002 13.1721C13.2553 12.5838 14.9998 10.454 14.9998 7.91667C14.9998 4.92512 12.5747 2.5 9.58317 2.5C6.59163 2.5 4.1665 4.92512 4.1665 7.91667C4.1665 10.4809 5.94827 12.6289 8.34127 13.1903C8.33592 13.2372 8.33317 13.285 8.33317 13.3333L8.33317 26.6667C8.33317 26.715 8.33592 26.7628 8.34127 26.8097C5.94827 27.3711 4.1665 29.5191 4.1665 32.0833ZM9.58317 35C7.97234 35 6.6665 33.6942 6.6665 32.0833C6.6665 30.4725 7.97234 29.1667 9.58317 29.1667C11.194 29.1667 12.4998 30.4725 12.4998 32.0833C12.4998 33.6942 11.194 35 9.58317 35ZM9.58317 10.8333C7.97234 10.8333 6.6665 9.5275 6.6665 7.91667C6.6665 6.30583 7.97234 5 9.58317 5C11.194 5 12.4998 6.30583 12.4998 7.91667C12.4998 9.5275 11.194 10.8333 9.58317 10.8333ZM27.4998 22.0833C27.4998 23.6942 28.8057 25 30.4165 25C32.0273 25 33.3332 23.6942 33.3332 22.0833C33.3332 20.4725 32.0273 19.1667 30.4165 19.1667C28.8057 19.1667 27.4998 20.4725 27.4998 22.0833Z" fill="white"/>
</svg>
