<svg width="40" height="40" viewBox="0 0 40 40" fill="none" xmlns="http://www.w3.org/2000/svg">
<path fill-rule="evenodd" clip-rule="evenodd" d="M6.25016 7.5C6.02004 7.5 5.8335 7.68655 5.8335 7.91667V32.0833C5.8335 32.3135 6.02004 32.5 6.25016 32.5H33.7502C33.9803 32.5 34.1668 32.3135 34.1668 32.0833V12.8125C34.1668 12.5824 33.9803 12.3958 33.7502 12.3958H19.6317C18.6666 12.3958 17.764 11.9184 17.2208 11.1206L14.8797 7.68217C14.8021 7.5682 14.6732 7.5 14.5353 7.5H6.25016ZM3.3335 7.91667C3.3335 6.30584 4.63933 5 6.25016 5H14.5353C15.5004 5 16.403 5.47742 16.9462 6.27519L19.2873 9.71366C19.3649 9.82763 19.4938 9.89583 19.6317 9.89583H33.7502C35.361 9.89583 36.6668 11.2017 36.6668 12.8125V32.0833C36.6668 33.6942 35.361 35 33.7502 35H6.25016C4.63933 35 3.3335 33.6942 3.3335 32.0833V7.91667Z" fill="white"/>
</svg>
