<svg width="40" height="40" viewBox="0 0 40 40" fill="none" xmlns="http://www.w3.org/2000/svg">
<path fill-rule="evenodd" clip-rule="evenodd" d="M2.91667 1.66667C1.30584 1.66667 0 2.9725 0 4.58333V20.4167C0 22.0275 1.30584 23.3333 2.91667 23.3333H5V25.9048C5 27.246 6.08728 28.3333 7.42851 28.3333C8.07259 28.3333 8.69029 28.0775 9.14573 27.622L13.4344 23.3333H23.75C25.3608 23.3333 26.6667 22.0275 26.6667 20.4167V4.58333C26.6667 2.9725 25.3608 1.66667 23.75 1.66667H2.91667ZM2.5 4.58333C2.5 4.35322 2.68655 4.16667 2.91667 4.16667H23.75C23.9801 4.16667 24.1667 4.35322 24.1667 4.58333V20.4167C24.1667 20.6468 23.9801 20.8333 23.75 20.8333H12.9167C12.5851 20.8333 12.2672 20.965 12.0328 21.1994L7.5 25.7322V22.0833C7.5 21.393 6.94036 20.8333 6.25 20.8333H2.91667C2.68655 20.8333 2.5 20.6468 2.5 20.4167V4.58333Z" fill="white"/>
<path d="M37.5 14.5833C37.5 14.3532 37.3134 14.1667 37.0833 14.1667H31.25C30.5596 14.1667 30 13.607 30 12.9167C30 12.2263 30.5596 11.6667 31.25 11.6667H37.0833C38.6942 11.6667 40 12.9725 40 14.5833V30.4167C40 32.0275 38.6942 33.3333 37.0833 33.3333H35V35.9048C35 37.246 33.9127 38.3333 32.5715 38.3333C31.9274 38.3333 31.3097 38.0775 30.8543 37.622L26.5656 33.3333H17.9167C16.3058 33.3333 15 32.0275 15 30.4167V27.9759C15 27.2855 15.5596 26.7259 16.25 26.7259C16.9404 26.7259 17.5 27.2855 17.5 27.9759V30.4167C17.5 30.6468 17.6865 30.8333 17.9167 30.8333H27.0833C27.4149 30.8333 27.7328 30.965 27.9672 31.1994L32.5 35.7322V32.0833C32.5 31.393 33.0596 30.8333 33.75 30.8333H37.0833C37.3134 30.8333 37.5 30.6468 37.5 30.4167V14.5833Z" fill="white"/>
</svg>
