<svg width="40" height="40" viewBox="0 0 40 40" fill="none" xmlns="http://www.w3.org/2000/svg">
<path fill-rule="evenodd" clip-rule="evenodd" d="M18.438 2.42705C19.3915 1.82236 20.6084 1.82236 21.562 2.42705L35.5332 11.2868C37.3394 12.4323 37.3394 15.0677 35.5332 16.2132L21.562 25.073C20.6084 25.6776 19.3915 25.6776 18.438 25.073L4.46678 16.2132C2.66055 15.0677 2.66055 12.4323 4.46678 11.2868L18.438 2.42705ZM20.2231 4.53832C20.0869 4.45194 19.9131 4.45194 19.7769 4.53832L5.80563 13.3981C5.5476 13.5618 5.5476 13.9382 5.80563 14.1019L19.7769 22.9617C19.9131 23.0481 20.0869 23.0481 20.2231 22.9617L34.1944 14.1019C34.4524 13.9382 34.4524 13.5618 34.1944 13.3981L20.2231 4.53832Z" fill="white"/>
<path fill-rule="evenodd" clip-rule="evenodd" d="M3.11103 20.5399C3.48074 19.9569 4.25308 19.784 4.83609 20.1537L19.7769 29.6283C19.9131 29.7147 20.0869 29.7147 20.2231 29.6283L35.1639 20.1537C35.7469 19.784 36.5192 19.9569 36.889 20.5399C37.2587 21.1229 37.0858 21.8953 36.5028 22.265L21.562 31.7396C20.6084 32.3443 19.3915 32.3443 18.438 31.7396L3.49724 22.265C2.91422 21.8953 2.74131 21.1229 3.11103 20.5399Z" fill="white"/>
<path fill-rule="evenodd" clip-rule="evenodd" d="M3.11103 27.2066C3.48074 26.6236 4.25308 26.4507 4.83609 26.8204L19.7769 36.295C19.9131 36.3814 20.0869 36.3814 20.2231 36.295L35.1639 26.8204C35.7469 26.4507 36.5192 26.6236 36.889 27.2066C37.2587 27.7896 37.0858 28.5619 36.5028 28.9317L21.562 38.4063C20.6084 39.011 19.3915 39.011 18.438 38.4063L3.49724 28.9317C2.91422 28.5619 2.74131 27.7896 3.11103 27.2066Z" fill="white"/>
</svg>
