<svg width="40" height="40" viewBox="0 0 40 40" fill="none" xmlns="http://www.w3.org/2000/svg">
<path fill-rule="evenodd" clip-rule="evenodd" d="M19.9998 4.16666C14.9373 4.16666 10.8333 8.27073 10.8333 13.3333C10.8333 16.4824 12.4212 19.2607 14.8401 20.9109C9.23247 22.9651 5.19317 28.2716 5.00642 34.5461C4.98589 35.2362 5.52863 35.8122 6.21868 35.8328C6.90873 35.8533 7.48478 35.3106 7.50532 34.6205C7.70555 27.8929 13.223 22.5 19.9997 22.5C26.7763 22.5 32.2938 27.8929 32.494 34.6205C32.5146 35.3106 33.0906 35.8533 33.7807 35.8328C34.4707 35.8122 35.0135 35.2362 34.9929 34.5461C34.8062 28.2716 30.767 22.9652 25.1595 20.911C27.5784 19.2607 29.1664 16.4825 29.1664 13.3333C29.1664 8.27073 25.0624 4.16666 19.9998 4.16666ZM13.3333 13.3333C13.3333 9.65141 16.318 6.66666 19.9998 6.66666C23.6816 6.66666 26.6664 9.65141 26.6664 13.3333C26.6664 17.0152 23.6816 20 19.9998 20C16.318 20 13.3333 17.0152 13.3333 13.3333Z" fill="white"/>
</svg>
