<svg width="606" height="585" viewBox="0 0 606 585" fill="none" xmlns="http://www.w3.org/2000/svg">
<path d="M366.075 280.163L559.711 380.84L521.194 447.553L337.188 330.198L366.075 280.163Z" fill="url(#paint0_linear_1774_51)"/>
<path d="M333.903 334.069L343.532 552.101H266.498L276.128 334.069H333.903Z" fill="url(#paint1_linear_1774_51)"/>
<path d="M274.629 218.032L265 0L342.033 0L332.404 218.032H274.629Z" fill="url(#paint2_linear_1774_51)"/>
<path d="M271.523 330.889L87.5166 448.244L48.9999 381.531L242.636 280.854L271.523 330.889Z" fill="url(#paint3_linear_1774_51)"/>
<path d="M366.075 272.081L559.711 171.404L521.194 104.691L337.188 222.046L366.075 272.081Z" fill="url(#paint4_linear_1774_51)"/>
<path d="M271.523 221.355L87.5166 104L48.9999 170.713L242.636 271.39L271.523 221.355Z" fill="url(#paint5_linear_1774_51)"/>
<g opacity="0.3" filter="url(#filter0_f_1774_51)">
<circle cx="231.615" cy="116.615" r="7.61466" fill="#FFEBC4"/>
</g>
<g filter="url(#filter1_f_1774_51)">
<circle cx="199.538" cy="392.538" r="2.53822" fill="#FFEBC4"/>
</g>
<g opacity="0.3" filter="url(#filter2_f_1774_51)">
<circle cx="220.538" cy="160.538" r="2.53822" fill="#FFEBC4"/>
</g>
<g filter="url(#filter3_f_1774_51)">
<circle cx="434.538" cy="309.538" r="2.53822" fill="#FFEBC4"/>
</g>
<g filter="url(#filter4_f_1774_51)">
<circle cx="128.461" cy="287.135" r="8.46073" fill="#FFDDAA"/>
</g>
<g opacity="0.6" filter="url(#filter5_f_1774_51)">
<circle cx="514.769" cy="250.769" r="6.76858" fill="#FFDDAA"/>
</g>
<g opacity="0.8" filter="url(#filter6_f_1774_51)">
<circle cx="234.769" cy="471.769" r="6.76858" fill="#FFDDAA"/>
</g>
<g filter="url(#filter7_dd_1774_51)">
<path d="M200.445 229.738L208.357 189.209L93.0342 166.695C88.089 192.026 103.029 210.72 117.579 213.561L200.445 229.738Z" fill="url(#paint6_linear_1774_51)"/>
<path d="M199.272 230.528L207.184 189.999L94.8057 168.06C89.8606 193.391 104.801 212.085 119.351 214.926L199.272 230.528Z" stroke="url(#paint7_linear_1774_51)" stroke-width="2.29412"/>
<path d="M201.208 267.586L209.12 227.057L113.426 208.375C108.481 233.706 123.422 252.4 137.971 255.241L201.208 267.586Z" fill="url(#paint8_linear_1774_51)"/>
<path d="M201.208 267.586L209.12 227.057L113.426 208.375C108.481 233.706 123.422 252.4 137.971 255.241L201.208 267.586Z" stroke="url(#paint9_linear_1774_51)" stroke-width="2.29412"/>
<path d="M227.949 310.205L235.861 269.676L140.168 250.994C135.222 276.325 150.163 295.019 164.713 297.86L227.949 310.205Z" fill="url(#paint10_linear_1774_51)"/>
<path d="M227.949 310.205L235.861 269.676L140.168 250.994C135.222 276.325 150.163 295.019 164.713 297.86L227.949 310.205Z" stroke="url(#paint11_linear_1774_51)" stroke-width="2.29412"/>
<g filter="url(#filter8_d_1774_51)">
<path d="M206.172 411.716V323H257.672V441.5L207.739 414.352C206.774 413.827 206.172 412.816 206.172 411.716Z" fill="#ECD8BA"/>
<path d="M206.172 411.716V323H257.672V441.5L207.739 414.352C206.774 413.827 206.172 412.816 206.172 411.716Z" stroke="url(#paint12_linear_1774_51)"/>
</g>
<path fill-rule="evenodd" clip-rule="evenodd" d="M211.841 409.139V368H211.172V409.697L211.452 409.743C212.377 409.897 213.405 410.444 214.245 411.244C215.084 412.043 215.705 413.066 215.859 414.144L215.885 414.323L242.952 427V381.726H242.283V425.948L216.492 413.868C216.272 412.676 215.58 411.592 214.706 410.76C213.869 409.962 212.839 409.372 211.841 409.139Z" fill="url(#paint13_linear_1774_51)"/>
<path fill-rule="evenodd" clip-rule="evenodd" d="M242.246 423.499C242.967 422.279 243.008 420.549 242.952 419.432L242.284 419.465C242.34 420.578 242.281 422.126 241.67 423.159C241.374 423.659 240.954 424.028 240.351 424.179C239.737 424.334 238.889 424.274 237.722 423.82L237.479 424.443C238.721 424.926 239.718 425.028 240.514 424.828C241.321 424.626 241.876 424.125 242.246 423.499Z" fill="#D4B195"/>
<g filter="url(#filter9_d_1774_51)">
<path d="M400.672 411.716V323H349.172V441.5L399.105 414.352C400.071 413.827 400.672 412.816 400.672 411.716Z" fill="#ECD8BA"/>
<path d="M400.672 411.716V323H349.172V441.5L399.105 414.352C400.071 413.827 400.672 412.816 400.672 411.716Z" stroke="url(#paint14_linear_1774_51)"/>
</g>
<path fill-rule="evenodd" clip-rule="evenodd" d="M395.004 409.139V368H395.673V409.697L395.393 409.743C394.468 409.897 393.44 410.444 392.6 411.244C391.761 412.043 391.14 413.066 390.986 414.144L390.96 414.323L363.893 427V381.726H364.562V425.948L390.353 413.868C390.573 412.676 391.265 411.592 392.138 410.76C392.976 409.962 394.006 409.372 395.004 409.139Z" fill="url(#paint15_linear_1774_51)"/>
<path fill-rule="evenodd" clip-rule="evenodd" d="M364.599 423.499C363.878 422.279 363.836 420.549 363.892 419.432L364.561 419.465C364.505 420.578 364.564 422.126 365.175 423.159C365.471 423.659 365.89 424.028 366.494 424.179C367.108 424.334 367.956 424.274 369.123 423.82L369.365 424.443C368.124 424.926 367.127 425.028 366.331 424.828C365.524 424.626 364.969 424.125 364.599 423.499Z" fill="#D4B195"/>
<path d="M405.712 231.043L397.8 190.514L513.123 168C518.068 193.331 503.127 212.025 488.577 214.866L405.712 231.043Z" fill="url(#paint16_linear_1774_51)"/>
<path d="M406.885 231.833L398.973 191.304L511.351 169.365C516.296 194.696 501.356 213.39 486.806 216.23L406.885 231.833Z" stroke="url(#paint17_linear_1774_51)" stroke-width="2.29412"/>
<path d="M404.949 268.891L397.037 228.362L492.73 209.68C497.676 235.011 482.735 253.705 468.185 256.545L404.949 268.891Z" fill="url(#paint18_linear_1774_51)"/>
<path d="M404.949 268.891L397.037 228.362L492.73 209.68C497.676 235.011 482.735 253.705 468.185 256.545L404.949 268.891Z" stroke="url(#paint19_linear_1774_51)" stroke-width="2.29412"/>
<path d="M378.208 311.51L370.296 270.981L465.989 252.299C470.934 277.63 455.994 296.324 441.444 299.165L378.208 311.51Z" fill="url(#paint20_linear_1774_51)"/>
<path d="M378.208 311.51L370.296 270.981L465.989 252.299C470.934 277.63 455.994 296.324 441.444 299.165L378.208 311.51Z" stroke="url(#paint21_linear_1774_51)" stroke-width="2.29412"/>
<g filter="url(#filter10_d_1774_51)">
<path d="M248.172 318H358.172V457.686L303.784 485.333C302.96 485.752 301.986 485.75 301.163 485.329L248.172 458.166V318Z" fill="url(#paint22_linear_1774_51)"/>
<path d="M248.172 318H358.172V457.686L303.784 485.333C302.96 485.752 301.986 485.75 301.163 485.329L248.172 458.166V318Z" stroke="url(#paint23_linear_1774_51)" stroke-width="2"/>
</g>
<path fill-rule="evenodd" clip-rule="evenodd" d="M319.172 476.511L303.784 484.333C302.96 484.752 301.986 484.75 301.163 484.329L285.172 476.132V374H319.172V476.511Z" fill="url(#paint24_linear_1774_51)"/>
<path fill-rule="evenodd" clip-rule="evenodd" d="M254.172 393H255.766V455.52L302.777 479.821L350.579 455.517V393H352.172V456.084L302.771 481L254.172 456.081V393Z" fill="url(#paint25_linear_1774_51)"/>
<path fill-rule="evenodd" clip-rule="evenodd" d="M303.105 458V476.143H302.235V458H303.105Z" fill="url(#paint26_linear_1774_51)"/>
<path fill-rule="evenodd" clip-rule="evenodd" d="M300.065 469.704C298.335 471.7 296.227 472.144 294.776 471.902L294.919 471.045C296.075 471.237 297.879 470.899 299.408 469.135C300.944 467.364 302.236 464.114 302.236 458.435H303.105C303.105 464.229 301.789 467.716 300.065 469.704Z" fill="url(#paint27_linear_1774_51)"/>
<path fill-rule="evenodd" clip-rule="evenodd" d="M305.276 469.704C307.006 471.7 309.114 472.144 310.565 471.902L310.422 471.045C309.266 471.237 307.462 470.899 305.932 469.135C304.397 467.364 303.105 464.114 303.105 458.435H302.236C302.236 464.229 303.552 467.716 305.276 469.704Z" fill="url(#paint28_linear_1774_51)"/>
<path fill-rule="evenodd" clip-rule="evenodd" d="M302.487 476.538L292.672 471.039L294.845 471.039L302.669 475.665L310.492 471H312.41L302.848 476.539C302.734 476.591 302.602 476.591 302.487 476.538Z" fill="url(#paint29_linear_1774_51)"/>
<g filter="url(#filter11_d_1774_51)">
<path d="M295.049 135.419L187.049 194.17C181.578 197.146 178.172 202.875 178.172 209.103L178.172 343.402C178.172 349.63 181.578 355.359 187.049 358.335L295.049 417.086C300.114 419.841 306.231 419.841 311.296 417.086L419.296 358.335C424.767 355.359 428.172 349.629 428.172 343.402L428.172 209.103C428.172 202.875 424.767 197.146 419.296 194.17L311.296 135.419C306.231 132.664 300.114 132.664 295.049 135.419Z" fill="url(#paint30_linear_1774_51)"/>
<path d="M294.929 157.403L206.015 205.771C200.565 208.736 197.172 214.444 197.172 220.648L197.172 331.352C197.172 337.556 200.565 343.264 206.015 346.229L294.929 394.597C299.976 397.343 306.069 397.343 311.116 394.597L400.03 346.229C405.48 343.264 408.873 337.556 408.873 331.352L408.873 220.648C408.873 214.444 405.48 208.736 400.03 205.771L311.116 157.403C306.069 154.657 299.976 154.657 294.929 157.403Z" fill="url(#paint31_linear_1774_51)"/>
<g filter="url(#filter12_f_1774_51)">
<path d="M294.929 157.403L206.015 205.771C200.565 208.736 197.172 214.444 197.172 220.648L197.172 331.352C197.172 337.556 200.565 343.264 206.015 346.229L294.929 394.597C299.976 397.343 306.069 397.343 311.116 394.597L400.03 346.229C405.48 343.264 408.873 337.556 408.873 331.352L408.873 220.648C408.873 214.444 405.48 208.736 400.03 205.771L311.116 157.403C306.069 154.657 299.976 154.657 294.929 157.403Z" stroke="url(#paint32_linear_1774_51)"/>
</g>
<g opacity="0.5">
<mask id="mask0_1774_51" style="mask-type:alpha" maskUnits="userSpaceOnUse" x="206" y="165" width="196" height="223">
<path d="M295.979 167.181L214.589 211.417C209.402 214.236 206.172 219.667 206.172 225.571L206.172 326.819C206.172 332.723 209.402 338.154 214.589 340.974L295.979 385.209C300.777 387.816 306.568 387.816 311.365 385.209L392.755 340.974C397.943 338.154 401.172 332.723 401.172 326.819L401.172 225.571C401.172 219.667 397.943 214.236 392.755 211.417L311.365 167.181C306.568 164.574 300.777 164.574 295.979 167.181Z" fill="#A6D3DE"/>
</mask>
<g mask="url(#mask0_1774_51)">
<path d="M295.979 167.181L214.589 211.417C209.402 214.236 206.172 219.667 206.172 225.571L206.172 326.819C206.172 332.723 209.402 338.154 214.589 340.974L295.979 385.209C300.777 387.816 306.568 387.816 311.365 385.209L392.755 340.974C397.943 338.154 401.172 332.723 401.172 326.819L401.172 225.571C401.172 219.667 397.943 214.236 392.755 211.417L311.365 167.181C306.568 164.574 300.777 164.574 295.979 167.181Z" fill="url(#paint33_radial_1774_51)"/>
<path opacity="0.5" d="M287.373 393.862L283.5 158.518H323.845L319.972 393.862H287.373Z" fill="url(#paint34_linear_1774_51)"/>
<path opacity="0.5" d="M286.854 391.775L165.828 189.896L200.767 169.724L315.085 375.475L286.854 391.775Z" fill="url(#paint35_linear_1774_51)"/>
<path opacity="0.5" d="M283.492 375.476L397.811 169.725L432.75 189.897L311.724 391.775L283.492 375.476Z" fill="url(#paint36_linear_1774_51)"/>
<rect x="206.172" y="262.742" width="195" height="126.638" fill="url(#paint37_linear_1774_51)"/>
<g filter="url(#filter13_i_1774_51)">
<path d="M295.979 167.181L214.589 211.417C209.402 214.236 206.172 219.667 206.172 225.571L206.172 326.819C206.172 332.723 209.402 338.154 214.589 340.974L295.979 385.209C300.777 387.816 306.568 387.816 311.365 385.209L392.755 340.974C397.943 338.154 401.172 332.723 401.172 326.819L401.172 225.571C401.172 219.667 397.943 214.236 392.755 211.417L311.365 167.181C306.568 164.574 300.777 164.574 295.979 167.181Z" fill="#6052B4" fill-opacity="0.01"/>
</g>
</g>
</g>
</g>
</g>
<g filter="url(#filter14_d_1774_51)">
<g filter="url(#filter15_d_1774_51)">
<path fill-rule="evenodd" clip-rule="evenodd" d="M302.151 177.233C304.643 175.541 311.766 183.329 315.553 192.116C313.79 194.848 311.757 198.01 309.454 201.601C311.342 199.033 313.892 196.847 317.105 195.043C315.765 198.402 320.298 206.822 320.227 208.871C320.179 210.237 317.657 213.791 312.661 219.534C314.314 218.001 316.58 215.796 319.458 212.921L320.108 212.271C323.411 229.527 325.064 257.434 323.449 263.414C321.834 269.393 318.101 270.17 314.044 282.69C315.948 279.698 318.543 276.244 321.828 272.328C321.349 278.749 319.446 284.756 316.119 290.35C311.29 298.472 306.781 303.314 306.217 311.647C306.217 311.647 305.517 325.025 305.517 331.715C305.517 336.096 305.706 356 305.706 356L301.83 355.719C301.83 355.719 302.017 335.719 302.017 331.301C302.017 324.227 301.317 310.079 301.317 310.079C301.118 309.324 300.906 308.603 300.684 307.917C298.191 300.236 289.901 293.805 287.301 285.64C285.568 280.197 283.761 274.065 281.88 267.244C284.809 268.038 287.727 269.876 290.636 272.76C288.712 267.157 283.829 260.34 281 253.179C283.633 239.588 282.262 217.038 287.787 206.187C289.834 191.801 299.66 178.924 302.151 177.233Z" fill="url(#paint38_linear_1774_51)"/>
<mask id="mask1_1774_51" style="mask-type:luminance" maskUnits="userSpaceOnUse" x="281" y="177" width="44" height="179">
<path fill-rule="evenodd" clip-rule="evenodd" d="M302.151 177.233C304.643 175.541 311.766 183.329 315.553 192.116C313.79 194.848 311.757 198.01 309.454 201.601C311.342 199.033 313.892 196.847 317.105 195.043C315.765 198.402 320.298 206.822 320.227 208.871C320.179 210.237 317.657 213.791 312.661 219.534C314.314 218.001 316.58 215.796 319.458 212.921L320.108 212.271C323.411 229.527 325.064 257.434 323.449 263.414C321.834 269.393 318.101 270.17 314.044 282.69C315.948 279.698 318.543 276.244 321.828 272.328C321.349 278.749 319.446 284.756 316.119 290.35C311.29 298.472 306.781 303.314 306.217 311.647C306.217 311.647 305.517 325.025 305.517 331.715C305.517 336.096 305.706 356 305.706 356L301.83 355.719C301.83 355.719 302.017 335.719 302.017 331.301C302.017 324.227 301.317 310.079 301.317 310.079C301.118 309.324 300.906 308.603 300.684 307.917C298.191 300.236 289.901 293.805 287.301 285.64C285.568 280.197 283.761 274.065 281.88 267.244C284.809 268.038 287.727 269.876 290.636 272.76C288.712 267.157 283.829 260.34 281 253.179C283.633 239.588 282.262 217.038 287.787 206.187C289.834 191.801 299.66 178.924 302.151 177.233Z" fill="white"/>
</mask>
<g mask="url(#mask1_1774_51)">
<path fill-rule="evenodd" clip-rule="evenodd" d="M324.075 252.023C324.075 262.368 314.857 273.528 314.044 282.689C320.227 272.655 322.067 268.936 325 267.356C327.933 265.776 324.075 241.678 324.075 252.023Z" fill="url(#paint39_linear_1774_51)"/>
<path fill-rule="evenodd" clip-rule="evenodd" d="M290.636 272.76L293.03 275.83C293.03 275.83 291.269 269.391 289.197 266.5C287.125 263.609 282.02 255.286 281 253.179C279.98 251.071 279.856 256.974 279.856 256.974L290.636 272.76Z" fill="url(#paint40_linear_1774_51)"/>
<path fill-rule="evenodd" clip-rule="evenodd" d="M319.587 205.965C320.21 207.685 318.876 210.479 316.352 214.157C313.827 217.834 310.193 222.028 310.193 222.028L312.661 219.535L321.346 210.275L323.029 206.649C323.029 206.649 318.965 204.244 319.587 205.965Z" fill="url(#paint41_linear_1774_51)"/>
<path fill-rule="evenodd" clip-rule="evenodd" d="M310.194 200.704L307.521 203.957C307.521 203.957 312.251 196.509 313.032 194.115C313.814 191.721 315.171 190.133 314.102 186.788C313.032 183.443 318.729 191.984 318.729 191.984L312.551 197.73L310.194 200.704Z" fill="url(#paint42_linear_1774_51)"/>
<path fill-rule="evenodd" clip-rule="evenodd" d="M301 362.302C301 362.302 301.839 341.049 302 331.592C302.234 317.847 303 185.031 303 185.031C303 185.031 305.533 304.092 305.533 332.472C305.533 360.852 311.817 366.628 311.817 366.628L301 364.47L301 362.302Z" fill="#EAC893"/>
</g>
</g>
<g filter="url(#filter16_d_1774_51)">
<path fill-rule="evenodd" clip-rule="evenodd" d="M303.413 356.252C302.804 356.061 302.177 355.864 301.641 357.566C301.641 368.692 300 373.2 300 373.2C300 373.2 304.069 379.307 304.069 382.911C304.069 379.416 308.138 373.2 308.138 373.2C308.138 373.2 306.497 367.681 306.497 357.566C305.9 355.671 305.308 355.915 304.669 356.179C304.474 356.26 304.274 356.342 304.069 356.366C303.856 356.39 303.636 356.321 303.413 356.252ZM305.031 365.692C305.031 366.251 304.579 366.704 304.02 366.704C303.461 366.704 303.008 366.251 303.008 365.692C303.008 365.134 303.461 364.681 304.02 364.681C304.579 364.681 305.031 365.134 305.031 365.692Z" fill="url(#paint43_linear_1774_51)"/>
<mask id="mask2_1774_51" style="mask-type:luminance" maskUnits="userSpaceOnUse" x="300" y="356" width="9" height="27">
<path fill-rule="evenodd" clip-rule="evenodd" d="M303.413 356.252C302.804 356.061 302.177 355.864 301.641 357.566C301.641 368.692 300 373.2 300 373.2C300 373.2 304.069 379.307 304.069 382.911C304.069 379.416 308.138 373.2 308.138 373.2C308.138 373.2 306.497 367.681 306.497 357.566C305.9 355.671 305.308 355.915 304.669 356.179C304.474 356.26 304.274 356.342 304.069 356.366C303.856 356.39 303.636 356.321 303.413 356.252ZM305.031 365.692C305.031 366.251 304.579 366.704 304.02 366.704C303.461 366.704 303.008 366.251 303.008 365.692C303.008 365.134 303.461 364.681 304.02 364.681C304.579 364.681 305.031 365.134 305.031 365.692Z" fill="white"/>
</mask>
<g mask="url(#mask2_1774_51)">
<path fill-rule="evenodd" clip-rule="evenodd" d="M304.069 357.565H315.398V382.91H304.069V357.565Z" fill="url(#paint44_linear_1774_51)"/>
<rect opacity="0.6" x="298" y="355.543" width="12.138" height="4.046" fill="url(#paint45_linear_1774_51)"/>
</g>
<path fill-rule="evenodd" clip-rule="evenodd" d="M304.069 379.631C304.832 376.491 308.138 373.2 308.138 373.2C308.138 373.2 304.069 379.416 304.069 382.911C304.069 379.307 300 373.2 300 373.2C300 373.2 303.183 376.526 304.069 379.631Z" fill="url(#paint46_linear_1774_51)"/>
<mask id="mask3_1774_51" style="mask-type:luminance" maskUnits="userSpaceOnUse" x="300" y="373" width="9" height="10">
<path fill-rule="evenodd" clip-rule="evenodd" d="M304.069 379.631C304.832 376.491 308.138 373.2 308.138 373.2C308.138 373.2 304.069 379.416 304.069 382.911C304.069 379.307 300 373.2 300 373.2C300 373.2 303.183 376.526 304.069 379.631Z" fill="white"/>
</mask>
<g mask="url(#mask3_1774_51)">
</g>
</g>
<g filter="url(#filter17_d_1774_51)">
<rect x="299.917" y="354.133" width="7.7" height="4" rx="1.4" fill="url(#paint47_linear_1774_51)"/>
</g>
<path fill-rule="evenodd" clip-rule="evenodd" d="M300.16 355.175C300.16 354.72 300.529 354.351 300.985 354.351H306.419C306.874 354.351 307.244 354.72 307.244 355.175C307.244 355.631 306.874 356 306.419 356H300.985C300.529 356 300.16 355.631 300.16 355.175Z" fill="white"/>
</g>
<defs>
<filter id="filter0_f_1774_51" x="203.694" y="88.6942" width="55.841" height="55.841" filterUnits="userSpaceOnUse" color-interpolation-filters="sRGB">
<feFlood flood-opacity="0" result="BackgroundImageFix"/>
<feBlend mode="normal" in="SourceGraphic" in2="BackgroundImageFix" result="shape"/>
<feGaussianBlur stdDeviation="10.1529" result="effect1_foregroundBlur_1774_51"/>
</filter>
<filter id="filter1_f_1774_51" x="195.308" y="388.308" width="8.46095" height="8.46046" filterUnits="userSpaceOnUse" color-interpolation-filters="sRGB">
<feFlood flood-opacity="0" result="BackgroundImageFix"/>
<feBlend mode="normal" in="SourceGraphic" in2="BackgroundImageFix" result="shape"/>
<feGaussianBlur stdDeviation="0.846073" result="effect1_foregroundBlur_1774_51"/>
</filter>
<filter id="filter2_f_1774_51" x="210" y="150" width="21.0767" height="21.0762" filterUnits="userSpaceOnUse" color-interpolation-filters="sRGB">
<feFlood flood-opacity="0" result="BackgroundImageFix"/>
<feBlend mode="normal" in="SourceGraphic" in2="BackgroundImageFix" result="shape"/>
<feGaussianBlur stdDeviation="4" result="effect1_foregroundBlur_1774_51"/>
</filter>
<filter id="filter3_f_1774_51" x="426" y="301" width="17.0767" height="17.0762" filterUnits="userSpaceOnUse" color-interpolation-filters="sRGB">
<feFlood flood-opacity="0" result="BackgroundImageFix"/>
<feBlend mode="normal" in="SourceGraphic" in2="BackgroundImageFix" result="shape"/>
<feGaussianBlur stdDeviation="3" result="effect1_foregroundBlur_1774_51"/>
</filter>
<filter id="filter4_f_1774_51" x="100" y="258.674" width="56.9214" height="56.9219" filterUnits="userSpaceOnUse" color-interpolation-filters="sRGB">
<feFlood flood-opacity="0" result="BackgroundImageFix"/>
<feBlend mode="normal" in="SourceGraphic" in2="BackgroundImageFix" result="shape"/>
<feGaussianBlur stdDeviation="10" result="effect1_foregroundBlur_1774_51"/>
</filter>
<filter id="filter5_f_1774_51" x="491.079" y="227.079" width="47.38" height="47.38" filterUnits="userSpaceOnUse" color-interpolation-filters="sRGB">
<feFlood flood-opacity="0" result="BackgroundImageFix"/>
<feBlend mode="normal" in="SourceGraphic" in2="BackgroundImageFix" result="shape"/>
<feGaussianBlur stdDeviation="8.46073" result="effect1_foregroundBlur_1774_51"/>
</filter>
<filter id="filter6_f_1774_51" x="211.079" y="448.079" width="47.38" height="47.38" filterUnits="userSpaceOnUse" color-interpolation-filters="sRGB">
<feFlood flood-opacity="0" result="BackgroundImageFix"/>
<feBlend mode="normal" in="SourceGraphic" in2="BackgroundImageFix" result="shape"/>
<feGaussianBlur stdDeviation="8.46073" result="effect1_foregroundBlur_1774_51"/>
</filter>
<filter id="filter7_dd_1774_51" x="0.232651" y="47.6388" width="605.691" height="536.966" filterUnits="userSpaceOnUse" color-interpolation-filters="sRGB">
<feFlood flood-opacity="0" result="BackgroundImageFix"/>
<feColorMatrix in="SourceAlpha" type="matrix" values="0 0 0 0 0 0 0 0 0 0 0 0 0 0 0 0 0 0 127 0" result="hardAlpha"/>
<feOffset/>
<feGaussianBlur stdDeviation="15.306"/>
<feColorMatrix type="matrix" values="0 0 0 0 0.991667 0 0 0 0 0.801597 0 0 0 0 0.516493 0 0 0 1 0"/>
<feBlend mode="normal" in2="BackgroundImageFix" result="effect1_dropShadow_1774_51"/>
<feColorMatrix in="SourceAlpha" type="matrix" values="0 0 0 0 0 0 0 0 0 0 0 0 0 0 0 0 0 0 127 0" result="hardAlpha"/>
<feOffset dy="6.12241"/>
<feGaussianBlur stdDeviation="45.9181"/>
<feColorMatrix type="matrix" values="0 0 0 0 1 0 0 0 0 0.722667 0 0 0 0 0.466667 0 0 0 0.6 0"/>
<feBlend mode="normal" in2="effect1_dropShadow_1774_51" result="effect2_dropShadow_1774_51"/>
<feBlend mode="normal" in="SourceGraphic" in2="effect2_dropShadow_1774_51" result="shape"/>
</filter>
<filter id="filter8_d_1774_51" x="197.672" y="314.5" width="68.5" height="135.841" filterUnits="userSpaceOnUse" color-interpolation-filters="sRGB">
<feFlood flood-opacity="0" result="BackgroundImageFix"/>
<feColorMatrix in="SourceAlpha" type="matrix" values="0 0 0 0 0 0 0 0 0 0 0 0 0 0 0 0 0 0 127 0" result="hardAlpha"/>
<feOffset/>
<feGaussianBlur stdDeviation="4"/>
<feColorMatrix type="matrix" values="0 0 0 0 0.7 0 0 0 0 0.561568 0 0 0 0 0.32375 0 0 0 0.78 0"/>
<feBlend mode="normal" in2="BackgroundImageFix" result="effect1_dropShadow_1774_51"/>
<feBlend mode="normal" in="SourceGraphic" in2="effect1_dropShadow_1774_51" result="shape"/>
</filter>
<filter id="filter9_d_1774_51" x="340.672" y="314.5" width="68.5" height="135.841" filterUnits="userSpaceOnUse" color-interpolation-filters="sRGB">
<feFlood flood-opacity="0" result="BackgroundImageFix"/>
<feColorMatrix in="SourceAlpha" type="matrix" values="0 0 0 0 0 0 0 0 0 0 0 0 0 0 0 0 0 0 127 0" result="hardAlpha"/>
<feOffset/>
<feGaussianBlur stdDeviation="4"/>
<feColorMatrix type="matrix" values="0 0 0 0 0.7 0 0 0 0 0.561568 0 0 0 0 0.32375 0 0 0 0.78 0"/>
<feBlend mode="normal" in2="BackgroundImageFix" result="effect1_dropShadow_1774_51"/>
<feBlend mode="normal" in="SourceGraphic" in2="effect1_dropShadow_1774_51" result="shape"/>
</filter>
<filter id="filter10_d_1774_51" x="239.172" y="309" width="128" height="185.646" filterUnits="userSpaceOnUse" color-interpolation-filters="sRGB">
<feFlood flood-opacity="0" result="BackgroundImageFix"/>
<feColorMatrix in="SourceAlpha" type="matrix" values="0 0 0 0 0 0 0 0 0 0 0 0 0 0 0 0 0 0 127 0" result="hardAlpha"/>
<feOffset/>
<feGaussianBlur stdDeviation="4"/>
<feColorMatrix type="matrix" values="0 0 0 0 0.7 0 0 0 0 0.561568 0 0 0 0 0.32375 0 0 0 0.78 0"/>
<feBlend mode="normal" in2="BackgroundImageFix" result="effect1_dropShadow_1774_51"/>
<feBlend mode="normal" in="SourceGraphic" in2="effect1_dropShadow_1774_51" result="shape"/>
</filter>
<filter id="filter11_d_1774_51" x="172.172" y="133.353" width="262" height="299.8" filterUnits="userSpaceOnUse" color-interpolation-filters="sRGB">
<feFlood flood-opacity="0" result="BackgroundImageFix"/>
<feColorMatrix in="SourceAlpha" type="matrix" values="0 0 0 0 0 0 0 0 0 0 0 0 0 0 0 0 0 0 127 0" result="hardAlpha"/>
<feOffset dy="8"/>
<feGaussianBlur stdDeviation="3"/>
<feColorMatrix type="matrix" values="0 0 0 0 0.4375 0 0 0 0 0.287401 0 0 0 0 0.111198 0 0 0 0.6 0"/>
<feBlend mode="normal" in2="BackgroundImageFix" result="effect1_dropShadow_1774_51"/>
<feBlend mode="normal" in="SourceGraphic" in2="effect1_dropShadow_1774_51" result="shape"/>
</filter>
<filter id="filter12_f_1774_51" x="196.372" y="154.544" width="213.3" height="242.913" filterUnits="userSpaceOnUse" color-interpolation-filters="sRGB">
<feFlood flood-opacity="0" result="BackgroundImageFix"/>
<feBlend mode="normal" in="SourceGraphic" in2="BackgroundImageFix" result="shape"/>
<feGaussianBlur stdDeviation="0.15" result="effect1_foregroundBlur_1774_51"/>
</filter>
<filter id="filter13_i_1774_51" x="206.172" y="165.226" width="195" height="221.939" filterUnits="userSpaceOnUse" color-interpolation-filters="sRGB">
<feFlood flood-opacity="0" result="BackgroundImageFix"/>
<feBlend mode="normal" in="SourceGraphic" in2="BackgroundImageFix" result="shape"/>
<feColorMatrix in="SourceAlpha" type="matrix" values="0 0 0 0 0 0 0 0 0 0 0 0 0 0 0 0 0 0 127 0" result="hardAlpha"/>
<feOffset/>
<feGaussianBlur stdDeviation="6.72414"/>
<feComposite in2="hardAlpha" operator="arithmetic" k2="-1" k3="1"/>
<feColorMatrix type="matrix" values="0 0 0 0 0.458333 0 0 0 0 0.256743 0 0 0 0 0.0706597 0 0 0 1 0"/>
<feBlend mode="normal" in2="shape" result="effect1_innerShadow_1774_51"/>
</filter>
<filter id="filter14_d_1774_51" x="277" y="177" width="51.0747" height="213.911" filterUnits="userSpaceOnUse" color-interpolation-filters="sRGB">
<feFlood flood-opacity="0" result="BackgroundImageFix"/>
<feColorMatrix in="SourceAlpha" type="matrix" values="0 0 0 0 0 0 0 0 0 0 0 0 0 0 0 0 0 0 127 0" result="hardAlpha"/>
<feOffset dy="4"/>
<feGaussianBlur stdDeviation="2"/>
<feColorMatrix type="matrix" values="0 0 0 0 0.795833 0 0 0 0 0.632621 0 0 0 0 0.441024 0 0 0 0.47 0"/>
<feBlend mode="normal" in2="BackgroundImageFix" result="effect1_dropShadow_1774_51"/>
<feBlend mode="normal" in="SourceGraphic" in2="effect1_dropShadow_1774_51" result="shape"/>
</filter>
<filter id="filter15_d_1774_51" x="274.129" y="173.384" width="57.5405" height="193.466" filterUnits="userSpaceOnUse" color-interpolation-filters="sRGB">
<feFlood flood-opacity="0" result="BackgroundImageFix"/>
<feColorMatrix in="SourceAlpha" type="matrix" values="0 0 0 0 0 0 0 0 0 0 0 0 0 0 0 0 0 0 127 0" result="hardAlpha"/>
<feOffset dx="0.361644" dy="3.61644"/>
<feGaussianBlur stdDeviation="3.61644"/>
<feColorMatrix type="matrix" values="0 0 0 0 0.795833 0 0 0 0 0.519745 0 0 0 0 0.195642 0 0 0 0.42 0"/>
<feBlend mode="normal" in2="BackgroundImageFix" result="effect1_dropShadow_1774_51"/>
<feBlend mode="normal" in="SourceGraphic" in2="effect1_dropShadow_1774_51" result="shape"/>
</filter>
<filter id="filter16_d_1774_51" x="293.129" y="352.384" width="22.6039" height="41.3769" filterUnits="userSpaceOnUse" color-interpolation-filters="sRGB">
<feFlood flood-opacity="0" result="BackgroundImageFix"/>
<feColorMatrix in="SourceAlpha" type="matrix" values="0 0 0 0 0 0 0 0 0 0 0 0 0 0 0 0 0 0 127 0" result="hardAlpha"/>
<feOffset dx="0.361644" dy="3.61644"/>
<feGaussianBlur stdDeviation="3.61644"/>
<feColorMatrix type="matrix" values="0 0 0 0 0.795833 0 0 0 0 0.519745 0 0 0 0 0.195642 0 0 0 0.42 0"/>
<feBlend mode="normal" in2="BackgroundImageFix" result="effect1_dropShadow_1774_51"/>
<feBlend mode="normal" in="SourceGraphic" in2="effect1_dropShadow_1774_51" result="shape"/>
</filter>
<filter id="filter17_d_1774_51" x="293.046" y="350.516" width="22.1659" height="18.4658" filterUnits="userSpaceOnUse" color-interpolation-filters="sRGB">
<feFlood flood-opacity="0" result="BackgroundImageFix"/>
<feColorMatrix in="SourceAlpha" type="matrix" values="0 0 0 0 0 0 0 0 0 0 0 0 0 0 0 0 0 0 127 0" result="hardAlpha"/>
<feOffset dx="0.361644" dy="3.61644"/>
<feGaussianBlur stdDeviation="3.61644"/>
<feColorMatrix type="matrix" values="0 0 0 0 0.795833 0 0 0 0 0.519745 0 0 0 0 0.195642 0 0 0 0.42 0"/>
<feBlend mode="normal" in2="BackgroundImageFix" result="effect1_dropShadow_1774_51"/>
<feBlend mode="normal" in="SourceGraphic" in2="effect1_dropShadow_1774_51" result="shape"/>
</filter>
<linearGradient id="paint0_linear_1774_51" x1="540.453" y1="414.196" x2="351.631" y2="305.18" gradientUnits="userSpaceOnUse">
<stop stop-color="#FFF6D6" stop-opacity="0"/>
<stop offset="1" stop-color="#FFEFC5" stop-opacity="0.4"/>
</linearGradient>
<linearGradient id="paint1_linear_1774_51" x1="305.015" y1="552.101" x2="305.015" y2="334.069" gradientUnits="userSpaceOnUse">
<stop stop-color="#FFF6D6" stop-opacity="0"/>
<stop offset="1" stop-color="#FFEFC5" stop-opacity="0.4"/>
</linearGradient>
<linearGradient id="paint2_linear_1774_51" x1="303.517" y1="0" x2="303.517" y2="218.032" gradientUnits="userSpaceOnUse">
<stop stop-color="#FFF6D6" stop-opacity="0"/>
<stop offset="1" stop-color="#FFEFC5" stop-opacity="0.4"/>
</linearGradient>
<linearGradient id="paint3_linear_1774_51" x1="68.2583" y1="414.888" x2="257.079" y2="305.872" gradientUnits="userSpaceOnUse">
<stop stop-color="#FFF6D6" stop-opacity="0"/>
<stop offset="1" stop-color="#FFEFC5" stop-opacity="0.4"/>
</linearGradient>
<linearGradient id="paint4_linear_1774_51" x1="540.453" y1="138.048" x2="351.631" y2="247.064" gradientUnits="userSpaceOnUse">
<stop stop-color="#FFF6D6" stop-opacity="0"/>
<stop offset="1" stop-color="#FFEFC5" stop-opacity="0.4"/>
</linearGradient>
<linearGradient id="paint5_linear_1774_51" x1="68.2583" y1="137.356" x2="257.079" y2="246.372" gradientUnits="userSpaceOnUse">
<stop stop-color="#FFF6D6" stop-opacity="0"/>
<stop offset="1" stop-color="#FFEFC5" stop-opacity="0.4"/>
</linearGradient>
<linearGradient id="paint6_linear_1774_51" x1="143.664" y1="218.653" x2="116.03" y2="177.613" gradientUnits="userSpaceOnUse">
<stop stop-color="#D2A86B"/>
<stop offset="0.875" stop-color="#FFF5DE"/>
</linearGradient>
<linearGradient id="paint7_linear_1774_51" x1="100.435" y1="169.159" x2="125.171" y2="216.062" gradientUnits="userSpaceOnUse">
<stop stop-color="#FFF5DE"/>
<stop offset="0.378992" stop-color="#F5E3C4"/>
<stop offset="0.480868" stop-color="#E6CA9E"/>
<stop offset="0.729174" stop-color="#D2A86B"/>
</linearGradient>
<linearGradient id="paint8_linear_1774_51" x1="164.056" y1="260.333" x2="136.422" y2="219.293" gradientUnits="userSpaceOnUse">
<stop stop-color="#E0C08E"/>
<stop offset="0.875" stop-color="#FFF5DE"/>
</linearGradient>
<linearGradient id="paint9_linear_1774_51" x1="119.055" y1="209.474" x2="174.672" y2="275.5" gradientUnits="userSpaceOnUse">
<stop stop-color="#FFF5DE"/>
<stop offset="0.378992" stop-color="#FFF5DE"/>
<stop offset="0.480868" stop-color="#EAD2A9"/>
<stop offset="0.729174" stop-color="#D2A86B"/>
</linearGradient>
<linearGradient id="paint10_linear_1774_51" x1="190.797" y1="302.952" x2="163.164" y2="261.912" gradientUnits="userSpaceOnUse">
<stop stop-color="#E0C08E"/>
<stop offset="0.875" stop-color="#FFF5DE"/>
</linearGradient>
<linearGradient id="paint11_linear_1774_51" x1="145.797" y1="252.093" x2="201.414" y2="318.119" gradientUnits="userSpaceOnUse">
<stop stop-color="#FFF5DE"/>
<stop offset="0.378992" stop-color="#FFF5DE"/>
<stop offset="0.480868" stop-color="#EAD2A9"/>
<stop offset="0.729174" stop-color="#D2A86B"/>
</linearGradient>
<linearGradient id="paint12_linear_1774_51" x1="206.172" y1="403.763" x2="259.046" y2="415.71" gradientUnits="userSpaceOnUse">
<stop stop-color="#8D664F"/>
<stop offset="0.208702" stop-color="#C49F7D"/>
<stop offset="0.648432" stop-color="#FFF1DC"/>
<stop offset="0.827985" stop-color="#B38368"/>
<stop offset="0.971703" stop-color="#8C5F4C"/>
</linearGradient>
<linearGradient id="paint13_linear_1774_51" x1="212.672" y1="402" x2="231.798" y2="396.298" gradientUnits="userSpaceOnUse">
<stop stop-color="#C7A383"/>
<stop offset="0.309893" stop-color="#D5B198"/>
<stop offset="0.523799" stop-color="#CBA68C"/>
<stop offset="0.77229" stop-color="#BB9478"/>
<stop offset="1" stop-color="#D7B49B"/>
</linearGradient>
<linearGradient id="paint14_linear_1774_51" x1="400.672" y1="403.763" x2="347.799" y2="415.71" gradientUnits="userSpaceOnUse">
<stop stop-color="#8D664F"/>
<stop offset="0.208702" stop-color="#C49F7D"/>
<stop offset="0.648432" stop-color="#FFF1DC"/>
<stop offset="0.827985" stop-color="#B38368"/>
<stop offset="0.971703" stop-color="#8C5F4C"/>
</linearGradient>
<linearGradient id="paint15_linear_1774_51" x1="394.173" y1="402" x2="375.047" y2="396.298" gradientUnits="userSpaceOnUse">
<stop stop-color="#C7A383"/>
<stop offset="0.309893" stop-color="#D5B198"/>
<stop offset="0.523799" stop-color="#CBA68C"/>
<stop offset="0.77229" stop-color="#BB9478"/>
<stop offset="1" stop-color="#D7B49B"/>
</linearGradient>
<linearGradient id="paint16_linear_1774_51" x1="462.493" y1="219.958" x2="490.127" y2="178.917" gradientUnits="userSpaceOnUse">
<stop stop-color="#D2A86B"/>
<stop offset="0.875" stop-color="#FFF5DE"/>
</linearGradient>
<linearGradient id="paint17_linear_1774_51" x1="505.722" y1="170.464" x2="480.986" y2="217.367" gradientUnits="userSpaceOnUse">
<stop stop-color="#FFF5DE"/>
<stop offset="0.378992" stop-color="#F5E3C4"/>
<stop offset="0.480868" stop-color="#E6CA9E"/>
<stop offset="0.729174" stop-color="#D2A86B"/>
</linearGradient>
<linearGradient id="paint18_linear_1774_51" x1="442.101" y1="261.638" x2="469.734" y2="220.597" gradientUnits="userSpaceOnUse">
<stop stop-color="#E0C08E"/>
<stop offset="0.875" stop-color="#FFF5DE"/>
</linearGradient>
<linearGradient id="paint19_linear_1774_51" x1="487.101" y1="210.779" x2="431.484" y2="276.805" gradientUnits="userSpaceOnUse">
<stop stop-color="#FFF5DE"/>
<stop offset="0.378992" stop-color="#FFF5DE"/>
<stop offset="0.480868" stop-color="#EAD2A9"/>
<stop offset="0.729174" stop-color="#D2A86B"/>
</linearGradient>
<linearGradient id="paint20_linear_1774_51" x1="415.36" y1="304.257" x2="442.993" y2="263.216" gradientUnits="userSpaceOnUse">
<stop stop-color="#E0C08E"/>
<stop offset="0.875" stop-color="#FFF5DE"/>
</linearGradient>
<linearGradient id="paint21_linear_1774_51" x1="460.36" y1="253.398" x2="404.743" y2="319.424" gradientUnits="userSpaceOnUse">
<stop stop-color="#FFF5DE"/>
<stop offset="0.378992" stop-color="#FFF5DE"/>
<stop offset="0.480868" stop-color="#EAD2A9"/>
<stop offset="0.729174" stop-color="#D2A86B"/>
</linearGradient>
<linearGradient id="paint22_linear_1774_51" x1="303.172" y1="392" x2="303.172" y2="486" gradientUnits="userSpaceOnUse">
<stop stop-color="#B58D70"/>
<stop offset="0.2286" stop-color="#B58D70"/>
<stop offset="0.47675" stop-color="#D8B59B"/>
<stop offset="0.88344" stop-color="#B58D70"/>
<stop offset="1" stop-color="#B58D70"/>
</linearGradient>
<linearGradient id="paint23_linear_1774_51" x1="248.172" y1="432.5" x2="354.545" y2="468.71" gradientUnits="userSpaceOnUse">
<stop stop-color="#8D664F"/>
<stop offset="0.208702" stop-color="#FFF5E6"/>
<stop offset="0.648432" stop-color="#ECD8BA"/>
<stop offset="0.780206" stop-color="#D0A568"/>
<stop offset="0.971703" stop-color="#8C5F4C"/>
</linearGradient>
<linearGradient id="paint24_linear_1774_51" x1="302.172" y1="374" x2="302.172" y2="484.646" gradientUnits="userSpaceOnUse">
<stop stop-color="#DDBFA9"/>
<stop offset="0.22229" stop-color="#DDBFA9"/>
<stop offset="0.669825" stop-color="#EBD4C4"/>
<stop offset="0.898796" stop-color="#DDBFA9"/>
<stop offset="1" stop-color="#DDBFA9"/>
</linearGradient>
<linearGradient id="paint25_linear_1774_51" x1="347.548" y1="445.339" x2="307.42" y2="414.246" gradientUnits="userSpaceOnUse">
<stop stop-color="#ECD8BA"/>
<stop offset="0.309893" stop-color="#EBD3AE"/>
<stop offset="0.523799" stop-color="#E2C69C"/>
<stop offset="0.77229" stop-color="#E3C8A0"/>
<stop offset="1" stop-color="#ECD8BA"/>
</linearGradient>
<linearGradient id="paint26_linear_1774_51" x1="302.67" y1="458" x2="302.67" y2="474.95" gradientUnits="userSpaceOnUse">
<stop stop-color="#FAECD8"/>
<stop offset="0.491891" stop-color="#F9EBD7"/>
<stop offset="1" stop-color="#ECD5B4"/>
</linearGradient>
<linearGradient id="paint27_linear_1774_51" x1="298.941" y1="458.435" x2="298.941" y2="471.962" gradientUnits="userSpaceOnUse">
<stop stop-color="#F9EBD7"/>
<stop offset="0.479167" stop-color="#FAEDD9"/>
<stop offset="1" stop-color="#F8E9D4"/>
</linearGradient>
<linearGradient id="paint28_linear_1774_51" x1="306.4" y1="458.435" x2="306.4" y2="471.962" gradientUnits="userSpaceOnUse">
<stop stop-color="#FAEDD8"/>
<stop offset="0.479167" stop-color="#FAECD8"/>
<stop offset="1" stop-color="#EAD4B2"/>
</linearGradient>
<linearGradient id="paint29_linear_1774_51" x1="301.617" y1="472.907" x2="290.341" y2="474.242" gradientUnits="userSpaceOnUse">
<stop stop-color="#E5CBA6"/>
<stop offset="0.309893" stop-color="#FAEDDA"/>
<stop offset="0.523799" stop-color="#F3E2C9"/>
<stop offset="0.613641" stop-color="#EFDCC0"/>
<stop offset="1" stop-color="#EFDCC0"/>
</linearGradient>
<linearGradient id="paint30_linear_1774_51" x1="250.672" y1="166" x2="363.172" y2="389.5" gradientUnits="userSpaceOnUse">
<stop stop-color="#FFF5DE"/>
<stop offset="1" stop-color="#CFA365"/>
</linearGradient>
<linearGradient id="paint31_linear_1774_51" x1="249.672" y1="184.5" x2="346.672" y2="363.5" gradientUnits="userSpaceOnUse">
<stop stop-color="#D2A86C"/>
<stop offset="1" stop-color="#F8E6C0"/>
</linearGradient>
<linearGradient id="paint32_linear_1774_51" x1="260.172" y1="178" x2="364.672" y2="366" gradientUnits="userSpaceOnUse">
<stop stop-color="#FFF6E7"/>
<stop offset="1" stop-color="#FFF8EC"/>
</linearGradient>
<radialGradient id="paint33_radial_1774_51" cx="0" cy="0" r="1" gradientUnits="userSpaceOnUse" gradientTransform="translate(303.672 276.195) rotate(90) scale(113.195 97.5)">
<stop stop-color="#FFE4BA"/>
<stop offset="1" stop-color="#DEA44D"/>
</radialGradient>
<linearGradient id="paint34_linear_1774_51" x1="303.672" y1="158.518" x2="303.672" y2="393.862" gradientUnits="userSpaceOnUse">
<stop stop-color="white"/>
<stop offset="1" stop-color="#F2EDED" stop-opacity="0"/>
</linearGradient>
<linearGradient id="paint35_linear_1774_51" x1="183.297" y1="179.81" x2="300.97" y2="383.625" gradientUnits="userSpaceOnUse">
<stop stop-color="white"/>
<stop offset="1" stop-color="#F2EDED" stop-opacity="0"/>
</linearGradient>
<linearGradient id="paint36_linear_1774_51" x1="415.28" y1="179.811" x2="297.608" y2="383.625" gradientUnits="userSpaceOnUse">
<stop stop-color="white"/>
<stop offset="1" stop-color="#F2EDED" stop-opacity="0"/>
</linearGradient>
<linearGradient id="paint37_linear_1774_51" x1="303.672" y1="317.656" x2="303.084" y2="381.534" gradientUnits="userSpaceOnUse">
<stop stop-color="white" stop-opacity="0"/>
<stop offset="1" stop-color="#FFF1E3"/>
</linearGradient>
<linearGradient id="paint38_linear_1774_51" x1="299.126" y1="132.13" x2="331.203" y2="134.476" gradientUnits="userSpaceOnUse">
<stop offset="0.168737" stop-color="#FDF2D9"/>
<stop offset="0.304755" stop-color="#FFF7E3"/>
<stop offset="0.451944" stop-color="#FFFCF4"/>
<stop offset="0.581036" stop-color="#FFF1D9"/>
<stop offset="0.705947" stop-color="#F3E0BF"/>
<stop offset="0.940592" stop-color="#FFF5DE"/>
</linearGradient>
<linearGradient id="paint39_linear_1774_51" x1="319.118" y1="241.119" x2="328.035" y2="242.102" gradientUnits="userSpaceOnUse">
<stop offset="0.168737" stop-color="#FDF2D9"/>
<stop offset="0.304755" stop-color="#FFF7E3"/>
<stop offset="0.451944" stop-color="#FFFCF4"/>
<stop offset="0.581036" stop-color="#FFF1D9"/>
<stop offset="0.705947" stop-color="#F3E0BF"/>
<stop offset="0.940592" stop-color="#FFF5DE"/>
</linearGradient>
<linearGradient id="paint40_linear_1774_51" x1="285.4" y1="246.807" x2="294.977" y2="248.46" gradientUnits="userSpaceOnUse">
<stop offset="0.168737" stop-color="#FDF2D9"/>
<stop offset="0.304755" stop-color="#FFF7E3"/>
<stop offset="0.451944" stop-color="#FFFCF4"/>
<stop offset="0.581036" stop-color="#FFF1D9"/>
<stop offset="0.705947" stop-color="#F3E0BF"/>
<stop offset="0.940592" stop-color="#FFF5DE"/>
</linearGradient>
<linearGradient id="paint41_linear_1774_51" x1="315.595" y1="201.041" x2="324.711" y2="203.16" gradientUnits="userSpaceOnUse">
<stop offset="0.168737" stop-color="#FDF2D9"/>
<stop offset="0.304755" stop-color="#FFF7E3"/>
<stop offset="0.451944" stop-color="#FFFCF4"/>
<stop offset="0.581036" stop-color="#FFF1D9"/>
<stop offset="0.705947" stop-color="#F3E0BF"/>
<stop offset="0.940592" stop-color="#FFF5DE"/>
</linearGradient>
<linearGradient id="paint42_linear_1774_51" x1="312.238" y1="181.307" x2="320.342" y2="182.831" gradientUnits="userSpaceOnUse">
<stop offset="0.168737" stop-color="#FDF2D9"/>
<stop offset="0.304755" stop-color="#FFF7E3"/>
<stop offset="0.451944" stop-color="#FFFCF4"/>
<stop offset="0.581036" stop-color="#FFF1D9"/>
<stop offset="0.705947" stop-color="#F3E0BF"/>
<stop offset="0.940592" stop-color="#FFF5DE"/>
</linearGradient>
<linearGradient id="paint43_linear_1774_51" x1="303.424" y1="349.254" x2="309.466" y2="349.81" gradientUnits="userSpaceOnUse">
<stop offset="0.168737" stop-color="#FDF2D9"/>
<stop offset="0.304755" stop-color="#FFF7E3"/>
<stop offset="0.451944" stop-color="#FFFCF4"/>
<stop offset="0.581036" stop-color="#FFF1D9"/>
<stop offset="0.705947" stop-color="#F3E0BF"/>
<stop offset="0.940592" stop-color="#FFF5DE"/>
</linearGradient>
<linearGradient id="paint44_linear_1774_51" x1="308.836" y1="351.212" x2="317.164" y2="352.344" gradientUnits="userSpaceOnUse">
<stop offset="0.168737" stop-color="#FDF2D9"/>
<stop offset="0.304755" stop-color="#FFF7E3"/>
<stop offset="0.451944" stop-color="#FFFCF4"/>
<stop offset="0.581036" stop-color="#FFF1D9"/>
<stop offset="0.705947" stop-color="#F3E0BF"/>
<stop offset="0.940592" stop-color="#FFF5DE"/>
</linearGradient>
<linearGradient id="paint45_linear_1774_51" x1="303.108" y1="354.529" x2="308.07" y2="359.053" gradientUnits="userSpaceOnUse">
<stop offset="0.168737" stop-color="#FDF2D9"/>
<stop offset="0.304755" stop-color="#FFF7E3"/>
<stop offset="0.451944" stop-color="#FFFCF4"/>
<stop offset="0.581036" stop-color="#FFF1D9"/>
<stop offset="0.705947" stop-color="#F3E0BF"/>
<stop offset="0.940592" stop-color="#FFF5DE"/>
</linearGradient>
<linearGradient id="paint46_linear_1774_51" x1="303.424" y1="370.766" x2="309.146" y2="372.223" gradientUnits="userSpaceOnUse">
<stop offset="0.168737" stop-color="#FDF2D9"/>
<stop offset="0.304755" stop-color="#FFF7E3"/>
<stop offset="0.451944" stop-color="#FFFCF4"/>
<stop offset="0.581036" stop-color="#FFF1D9"/>
<stop offset="0.705947" stop-color="#F3E0BF"/>
<stop offset="0.940592" stop-color="#FFF5DE"/>
</linearGradient>
<linearGradient id="paint47_linear_1774_51" x1="303.158" y1="353.13" x2="307.452" y2="355.643" gradientUnits="userSpaceOnUse">
<stop offset="0.168737" stop-color="#FDF2D9"/>
<stop offset="0.304755" stop-color="#FFF7E3"/>
<stop offset="0.451944" stop-color="#FFFCF4"/>
<stop offset="0.581036" stop-color="#FFF1D9"/>
<stop offset="0.705947" stop-color="#F3E0BF"/>
<stop offset="0.940592" stop-color="#FFF5DE"/>
</linearGradient>
</defs>
</svg>
