<svg width="33" height="32" viewBox="0 0 33 32" fill="none" xmlns="http://www.w3.org/2000/svg">
<path d="M20.5408 15.1786C20.5474 15.2403 20.5544 15.4362 20.4547 15.7719C20.2338 16.5154 19.5731 17.6154 18.2689 18.5588C16.9929 19.4818 15.8319 19.7115 15.1511 19.6793C14.8245 19.6639 14.6522 19.5938 14.5945 19.5647C14.5522 19.5434 14.5424 19.5331 14.5223 19.5052C14.5091 19.487 14.4648 19.4221 14.4377 19.2544C14.4086 19.0748 14.4018 18.7767 14.4988 18.3767C14.6969 17.5596 15.2766 16.5538 16.3585 15.7711C17.4255 14.9992 18.5794 14.7518 19.4564 14.8223C19.8846 14.8567 20.1802 14.9605 20.3507 15.0484C20.461 15.1053 20.516 15.1527 20.5408 15.1786Z" stroke="url(#paint0_linear_217_309)" stroke-width="15"/>
<path d="M25.4631 9.06519C29.5195 13.8722 28.4718 19.6845 22.8289 24.264C17.0189 28.5481 10.7164 27.5146 7.40365 23.301C4.09093 19.0874 5.30591 12.0833 10.4506 8.36171C15.5952 4.6401 22.4112 4.84623 25.4631 9.06519Z" fill="url(#paint1_linear_217_309)"/>
<path d="M21.3369 11.5092C21.7681 12.1052 22.0095 13.0398 21.5776 14.4272C21.1346 15.85 20.0191 17.4982 18.1906 18.8209C14.2264 21.6886 11.2346 20.4564 10.4273 19.3404C9.46487 18.01 9.41944 14.331 13.1169 11.6563C16.8163 8.98018 20.3757 10.1804 21.3369 11.5092Z" stroke="url(#paint2_linear_217_309)" stroke-width="9.59964"/>
<path d="M23.5205 9.12281C25.6986 12.1337 24.5264 17.4525 19.7686 20.8943C15.0108 24.336 9.59232 23.7849 7.41426 20.774C5.23621 17.7631 6.40842 12.4443 11.1662 9.00253C15.924 5.56077 21.3425 6.11192 23.5205 9.12281Z" fill="#FFD93B" stroke="url(#paint3_linear_217_309)" stroke-width="3"/>
<path d="M21.1026 10.8761C21.6642 11.6525 21.8454 12.8255 21.3538 14.2866C20.8637 15.7431 19.7408 17.3142 18.0278 18.5534C16.3147 19.7926 14.4712 20.3674 12.9345 20.3771C11.3929 20.3868 10.3355 19.8476 9.77386 19.0712C9.21222 18.2948 9.03101 17.1217 9.52264 15.6606C10.0127 14.2041 11.1356 12.6331 12.8486 11.3939C14.5617 10.1546 16.4052 9.57985 17.9419 9.57018C19.4835 9.56047 20.5409 10.0997 21.1026 10.8761Z" stroke="url(#paint4_linear_217_309)" stroke-width="4"/>
<g filter="url(#filter0_f_217_309)">
<path d="M26.495 14.3546L27.9317 16.6444C28.3769 14.028 27.4035 11.9339 27.021 11.353C26.7182 10.7855 26.1566 9.98834 25.495 9.11367C23.7394 6.36889 20.0384 3.92084 14.2854 5.74886C7.44298 8.10205 5.17495 13.6472 4.93164 16.0958L25.91 14.0865L26.495 14.3546Z" fill="url(#paint5_linear_217_309)" fill-opacity="0.3"/>
</g>
<defs>
<filter id="filter0_f_217_309" x="0.665133" y="0.850068" width="31.6473" height="20.0608" filterUnits="userSpaceOnUse" color-interpolation-filters="sRGB">
<feFlood flood-opacity="0" result="BackgroundImageFix"/>
<feBlend mode="normal" in="SourceGraphic" in2="BackgroundImageFix" result="shape"/>
<feGaussianBlur stdDeviation="2.13325" result="effect1_foregroundBlur_217_309"/>
</filter>
<linearGradient id="paint0_linear_217_309" x1="26.069" y1="10.0105" x2="11.0428" y2="26.9023" gradientUnits="userSpaceOnUse">
<stop stop-color="#FDF8CE"/>
<stop offset="0.0550575" stop-color="#F2E158"/>
<stop offset="0.170676" stop-color="#FCF5AF"/>
<stop offset="0.309086" stop-color="#ECD42F"/>
<stop offset="0.491314" stop-color="#E9B00C"/>
<stop offset="0.704021" stop-color="#ECB600"/>
<stop offset="0.78935" stop-color="#E8CF29"/>
<stop offset="0.843399" stop-color="#EBD431"/>
<stop offset="0.909367" stop-color="#E2C317"/>
<stop offset="1" stop-color="#E9D14F"/>
</linearGradient>
<linearGradient id="paint1_linear_217_309" x1="25.8112" y1="10.1204" x2="9.19944" y2="26.8954" gradientUnits="userSpaceOnUse">
<stop stop-color="#EEBB5C"/>
<stop offset="0.0550575" stop-color="#FDEE48"/>
<stop offset="0.170676" stop-color="#E8BB06"/>
<stop offset="0.309086" stop-color="#D57B01"/>
<stop offset="0.491314" stop-color="#C86101"/>
<stop offset="0.660555" stop-color="#D88C2D"/>
<stop offset="0.771761" stop-color="#E8BE29"/>
<stop offset="0.815114" stop-color="#E8BE29"/>
<stop offset="0.881945" stop-color="#E8AE0E"/>
<stop offset="0.930202" stop-color="#D98317"/>
<stop offset="1" stop-color="#EBAE4E"/>
</linearGradient>
<linearGradient id="paint2_linear_217_309" x1="24.6598" y1="7.90276" x2="9.34186" y2="25.3239" gradientUnits="userSpaceOnUse">
<stop stop-color="#FDF8CE"/>
<stop offset="0.0550575" stop-color="#F2E158"/>
<stop offset="0.170676" stop-color="#FCF5AF"/>
<stop offset="0.309086" stop-color="#ECD42F"/>
<stop offset="0.491314" stop-color="#E9B00C"/>
<stop offset="0.704021" stop-color="#ECB600"/>
<stop offset="0.78935" stop-color="#E8CF29"/>
<stop offset="0.843399" stop-color="#EBD431"/>
<stop offset="0.909367" stop-color="#E2C317"/>
<stop offset="1" stop-color="#E9D14F"/>
</linearGradient>
<linearGradient id="paint3_linear_217_309" x1="19.7826" y1="5.0015" x2="12.3321" y2="24.9218" gradientUnits="userSpaceOnUse">
<stop stop-color="#FFDC5E"/>
<stop offset="0.417119" stop-color="#FFED97"/>
<stop offset="1" stop-color="#FFF27B"/>
</linearGradient>
<linearGradient id="paint4_linear_217_309" x1="11.7748" y1="9.37239" x2="19.7956" y2="19.9965" gradientUnits="userSpaceOnUse">
<stop stop-color="#E4991A"/>
<stop offset="0.474971" stop-color="#EAAA2E" stop-opacity="0"/>
<stop offset="1" stop-color="#FFF27B" stop-opacity="0"/>
</linearGradient>
<linearGradient id="paint5_linear_217_309" x1="12.5762" y1="15.1942" x2="12.2697" y2="4.26231" gradientUnits="userSpaceOnUse">
<stop stop-color="white"/>
<stop offset="0.105858" stop-color="white"/>
<stop offset="0.21696" stop-color="white" stop-opacity="0.961194"/>
<stop offset="1" stop-color="white" stop-opacity="0"/>
</linearGradient>
</defs>
</svg>
