<svg width="35" height="35" viewBox="0 0 35 35" fill="none" xmlns="http://www.w3.org/2000/svg">
<path fill-rule="evenodd" clip-rule="evenodd" d="M19.6392 1.82178C18.4729 0.60634 16.5293 0.606339 15.363 1.82177L14.6187 2.59743C13.8925 3.35422 12.8203 3.67074 11.7996 3.42969L10.7629 3.18488C9.13048 2.79941 7.50383 3.84443 7.17583 5.48932L6.95305 6.60656C6.74979 7.62586 6.02736 8.46415 5.04926 8.81568L3.99412 9.1949C2.42812 9.75773 1.63249 11.4994 2.23231 13.0516L2.65855 14.1546C3.03038 15.1168 2.87504 16.2032 2.24845 17.0226L1.53331 17.9579C0.524801 19.2768 0.796627 21.1669 2.13595 22.1482L3.06724 22.8305C3.90171 23.4419 4.35694 24.4442 4.26827 25.4748L4.16812 26.6388C4.02494 28.3031 5.28492 29.7567 6.95263 29.8513L8.03882 29.9129C9.08187 29.9721 10.0167 30.5761 10.4992 31.5027L11.0093 32.4823C11.7865 33.9746 13.6487 34.5212 15.1091 33.6857L16.0295 33.1591C16.9412 32.6374 18.0609 32.6374 18.9726 33.1591L19.893 33.6857C21.3534 34.5212 23.2157 33.9746 23.9928 32.4823L24.5029 31.5028C24.9855 30.5761 25.9203 29.9721 26.9633 29.9129L28.0495 29.8513C29.7172 29.7567 30.9772 28.3031 30.834 26.6388L30.7339 25.4748C30.6452 24.4442 31.1004 23.4419 31.9349 22.8305L32.8662 22.1482C34.2055 21.1669 34.4773 19.2768 33.4688 17.9579L32.7537 17.0226C32.1271 16.2032 31.9718 15.1168 32.3436 14.1546L32.7698 13.0516C33.3697 11.4994 32.574 9.75773 31.008 9.1949L29.9529 8.81568C28.9748 8.46415 28.2524 7.62585 28.0491 6.60656L27.8263 5.48932C27.4983 3.84443 25.8717 2.79941 24.2393 3.18488L23.2026 3.42969C22.1818 3.67074 21.1097 3.35422 20.3835 2.59743L19.6392 1.82178ZM12.8112 17.732C12.3683 17.2798 11.6503 17.2798 11.2074 17.732C10.7645 18.1843 10.7645 18.9175 11.2074 19.3697L14.2744 22.5015C14.4322 22.6627 14.625 22.7664 14.8278 22.8127C15.2328 22.9706 15.7085 22.8829 16.0348 22.5496L23.3349 15.0952C23.7778 14.643 23.7778 13.9098 23.3349 13.4575C22.8921 13.0053 22.174 13.0053 21.7312 13.4575L15.1782 20.1491L12.8112 17.732ZM17.527 29.7613C24.2395 29.7613 29.6811 24.2618 29.6811 17.4777C29.6811 10.6937 24.2395 5.19412 17.527 5.19412C10.8145 5.19412 5.37288 10.6937 5.37288 17.4777C5.37288 24.2618 10.8145 29.7613 17.527 29.7613ZM17.527 27.3046C12.157 27.3046 7.8037 22.905 7.8037 17.4777C7.8037 12.0505 12.157 7.65084 17.527 7.65084C22.897 7.65084 27.2503 12.0505 27.2503 17.4777C27.2503 22.905 22.897 27.3046 17.527 27.3046Z" fill="black" fill-opacity="0.5"/>
</svg>
